<svg width="88" height="88" viewBox="0 0 88 88" fill="none" xmlns="http://www.w3.org/2000/svg">
<path fill-rule="evenodd" clip-rule="evenodd" d="M11.1705 39.4535C11.1705 35.2546 14.5125 31.1894 20.5194 28.1105C26.4728 25.0589 34.7727 23.1395 44 23.1395C53.2273 23.1395 61.5272 25.0589 67.4806 28.1105C73.4875 31.1894 76.8295 35.2546 76.8295 39.4535C76.8295 41.2034 76.249 42.9301 75.1371 44.5718C73.8879 46.4139 71.9699 48.1497 69.4607 49.6876C68.8372 50.0696 68.1768 50.4397 67.4806 50.7965C67.3411 50.868 67.2003 50.9389 67.0582 51.0092C66.9168 51.0791 66.7742 51.1484 66.6303 51.2171C66.1476 51.4474 65.6509 51.6706 65.1409 51.8862C59.4377 54.2979 52.0739 55.7674 44 55.7674C35.2041 55.7674 27.251 54.0234 21.3697 51.2171C21.3463 51.2059 21.323 51.1947 21.2997 51.1835C21.2005 51.136 21.102 51.0881 21.0041 51.0399C20.8408 50.9596 20.6792 50.8785 20.5194 50.7965C17.0144 49 14.4167 46.8676 12.8609 44.5689C11.7503 42.928 11.1705 41.2023 11.1705 39.4535ZM9.00348 39.7209C9.00116 39.632 9 39.5428 9 39.4535C9 34.0516 13.2501 29.425 19.518 26.2122C25.8393 22.9721 34.4967 21 44 21C53.5033 21 62.1607 22.9721 68.482 26.2122C74.7499 29.425 79 34.0516 79 39.4535C79 39.5428 78.9988 39.632 78.9965 39.7209H79V40.7907V48.2791C79 53.7463 74.7615 58.4413 68.4881 61.7063C62.1654 64.997 53.5057 67 44 67C34.4943 67 25.8346 64.997 19.5119 61.7063C13.2385 58.4413 9 53.7463 9 48.2791V40.7907V39.7209H9.00348ZM17.4299 51.5256C14.7959 49.915 12.642 48.0303 11.1705 45.9277V48.2791C11.1705 52.5603 14.5241 56.6909 20.5254 59.8143C26.4774 62.9121 34.7751 64.8605 44 64.8605C53.2249 64.8605 61.5226 62.9121 67.4746 59.8143C73.4759 56.6909 76.8295 52.5603 76.8295 48.2791V45.9278C75.358 48.0303 73.2041 49.915 70.5701 51.5256C69.9033 51.9336 69.2061 52.3236 68.482 52.6948C68.3598 52.7574 68.2367 52.8196 68.1128 52.8813C67.9362 52.9691 67.7579 53.056 67.5779 53.142C67.5773 53.1422 67.5767 53.1425 67.5761 53.1428C61.3457 56.1158 53.057 57.907 44 57.907C35.6846 57.907 28.0168 56.3971 21.9951 53.849C21.4574 53.6215 20.9329 53.3857 20.4222 53.142C20.32 53.0932 20.2184 53.0442 20.1174 52.9948C19.9153 52.896 19.7155 52.796 19.518 52.6948C18.7939 52.3236 18.0967 51.9336 17.4299 51.5256Z" fill="#3B199C"/>
<ellipse cx="43.9368" cy="39.2961" rx="33.6147" ry="17.0908" fill="#3B199C"/>
</svg>
